<svg xmlns="http://www.w3.org/2000/svg" xmlns:xlink="http://www.w3.org/1999/xlink"
     viewBox="0 0 589.598 165.456" class="logo" data-v-ff2ad164="">
    <defs>
        <path id="a" d="M0 0h589.598v165.456H0z"></path>
    </defs>
    <g fill="none" fill-rule="evenodd">
        <mask id="b" fill="#fff">
            <use xlink:href="#a"></use>
        </mask>
        <path fill="#FD0"
              d="M568.84 24.585c-9.434-1.318-11.07-2.455-20.51-3.729-14.698-1.981-24.174-4.028-38.966-5.321-18.564-1.624-37.243-2.398-55.86-3.63-18.78-1.246-37.49-3.001-56.325-3.815-25.946-1.123-51.988-1.508-77.972-2.334-16.32-.518-32.578-1.531-48.92-1.851-23.805-.466-47.655-.55-71.495-.717-13.676-.095-27.368-.058-41.057-.034-19.103.034-38.213.135-57.315.164-10.98.017-21.955-.018-32.923-.094-8.259-.057-16.509-.216-24.762-.331l.081-.679c-2.753-.733-5.469-1.717-8.272-2.14-4.687-.708-7.579 3.598-8.985 13.428-1.685 11.791-2.275 23.283-1.48 34.374.43 5.967-.384 7.911-3.469 8.344-3.065.431-6.08.282-9.134.57-5.926.559-8.388 4.444-9.73 16.015-2.297 19.806-2.073 38.607-.798 56.968.545 7.845 2.863 10.68 6.956 10.128 8.544-1.154 17.061-1.982 25.557-2.646 16.351-1.276 32.68-2.313 49.023-3.51 17.151-1.255 34.302-2.531 51.466-3.906 5.285-.423 10.618-1.311 15.907-1.787 7.703-.692 15.38-1.119 23.082-1.815 8.196-.742 16.436-1.932 24.61-2.458 15.224-.978 53.896-2.236 96.844-1.754 37.614.424 76.005 4.187 89.93 7.308 13.945 3.123 91.921 15.459 123.306 23.06 7.358 1.783 17.165 2.914 24.668 3.865 14.542 1.845 23.625 7.391 23.625 7.391.333.031.783.429 1.127.802 2.207 2.376 4.243.321 6.095-3.896 1.208-2.749 2.435-5.582 3.37-8.626 4.305-14.019 6.384-51.906 10.704-65.913 1.817-5.889 4.058-11.425 3.445-18.097-.108-1.18.394-3.005.788-4.403 2.32-8.265 4.644-16.533 7.066-24.718 1.438-4.859 1.563-7.528-.374-9.643-2.85-3.11-5.992-4.989-9.916-1.833-.416.334-.94.221-1.329-.023-1.106-.695-2.087-2.116-3.263-2.266l-4.795-.448Z"
              mask="url(#b)"></path>
        <path fill="#00226A"
              d="M168.826 17.27v98.943h-23.034l-1.803-12.02c-8.213 9.216-20.23 14.22-34.25 14.22-28.44 0-48.068-21.227-48.068-51.672 0-30.443 19.628-51.675 48.069-51.675 14.02 0 26.237 5.009 34.249 14.02l1.803-11.815h23.034zm-26.44 49.47c0-16.623-11.216-28.442-27.238-28.442-15.823 0-27.041 11.819-27.041 28.443 0 16.623 11.218 28.44 27.04 28.44 16.023 0 27.24-11.817 27.24-28.44zm44.86 38.055 11.018-18.826c9.214 6.408 22.633 10.213 35.252 10.213 10.614 0 16.82-3.405 16.82-9.213 0-6.007-5.406-8.811-19.025-10.014-25.437-2.001-40.66-13.218-40.66-31.045 0-18.626 17.227-31.245 43.663-31.245 15.424 0 29.244 4.207 39.657 11.216L263.157 44.31c-8.213-5.21-17.426-7.615-27.64-7.615-12.417 0-18.827 3.206-18.827 9.215 0 5.407 5.007 8.214 17.224 9.415 28.644 2.802 42.663 12.617 42.663 31.644 0 19.229-17.026 31.847-44.265 31.847-17.226 0-32.446-5.01-45.066-14.021m207.896-87.524v98.942h-23.034l-1.803-12.02c-8.21 9.216-20.228 14.22-34.247 14.22-28.44 0-48.07-21.227-48.07-51.672 0-30.443 19.63-51.675 48.07-51.675 14.02 0 26.235 5.009 34.247 14.02l1.803-11.815h23.034zm-26.438 49.47c0-16.624-11.216-28.443-27.24-28.443-15.823 0-27.039 11.819-27.039 28.443 0 16.623 11.216 28.44 27.04 28.44 16.023 0 27.24-11.817 27.24-28.44zm159.221 0c0 30.445-19.628 51.673-48.069 51.673-13.019 0-24.437-4.406-32.448-12.418v54.48h-26.636V17.27h23.034l1.8 11.814c8.013-9.012 20.232-14.019 34.25-14.019 28.441 0 48.07 21.232 48.07 51.675m-26.437 0c0-16.624-11.217-28.443-27.042-28.443-16.022 0-27.236 11.82-27.236 28.443s11.214 28.441 27.236 28.441c15.825 0 27.042-11.818 27.042-28.44"></path>
    </g>
</svg>